<svg width="22.000000" height="22.000000" viewBox="0 0 22 22" fill="none" xmlns="http://www.w3.org/2000/svg" xmlns:xlink="http://www.w3.org/1999/xlink">
<defs>
<clipPath id="clip131_2525">
<rect id="icon/leaf" width="22.000000" height="22.000000" fill="white" fill-opacity="0"/>
</clipPath>
</defs>
<g clip-path="url(#clip131_2525)">
<path id="icon/leaf" d="M10.69 16.24C10.82 16.82 10.9 17.41 10.93 17.99C7.91 17.98 5.06 16.64 3.17 14.36C1.83 12.74 1.08 10.77 1 8.74C2.46 8.75 3.92 9.07 5.27 9.69C8.01 10.97 10.01 13.38 10.69 16.24M11.06 17.99C14.08 17.98 16.93 16.64 18.82 14.36C20.16 12.74 20.91 10.77 21 8.74C19.53 8.75 18.07 9.07 16.72 9.69C13.98 10.97 11.98 13.38 11.3 16.24C11.17 16.82 11.09 17.41 11.06 17.99C11.91 17.99 12.75 17.88 13.55 17.67C13.55 17.68 13.54 17.69 13.54 17.69C12.73 17.89 11.9 18 11.05 18C11.01 18 10.97 17.99 10.93 17.99C10.9 17.41 10.82 16.82 10.69 16.24C10.13 13.89 8.69 11.84 6.67 10.48C6.7 10.28 6.74 10.08 6.79 9.87C7.37 7.45 8.88 5.35 11 4C13.11 5.35 14.62 7.45 15.2 9.87C15.25 10.08 15.29 10.28 15.32 10.48C13.3 11.84 11.86 13.89 11.3 16.24" stroke="#0266C1" stroke-opacity="1.000000" stroke-width="1.000000" stroke-linejoin="round"/>
</g>
</svg>
