<svg width="22.000000" height="22.000000" viewBox="0 0 22 22" fill="none" xmlns="http://www.w3.org/2000/svg" xmlns:xlink="http://www.w3.org/1999/xlink">
	<desc>
			Created with Pixso.
	</desc>
	<defs>
		<clipPath id="clip131_2517">
			<rect id="icon/boots" width="22.000000" height="22.000000" fill="white" fill-opacity="0"/>
		</clipPath>
	</defs>
	<g clip-path="url(#clip131_2517)">
		<path id="Vector" d="M20.28 8.12C20.82 9.77 21.33 12.14 20.71 14.24C20.88 14.28 21 14.44 20.99 14.62L20.99 18.74C20.99 18.95 20.84 19.12 20.64 19.12L19.76 19.12C19.57 19.12 19.41 18.95 19.41 18.74L19.41 18.1L18.88 18.1L18.88 18.74C18.88 18.95 18.72 19.12 18.53 19.12L17.38 19.12C17.19 19.12 17.03 18.95 17.03 18.74L17.03 18.1L16.52 18.1L16.52 18.75C16.52 18.96 16.36 19.13 16.16 19.13L15.72 19.13C15.65 19.13 15.57 19.1 15.51 19.05C15.44 19 13.87 17.74 11.38 19.27L11.33 19.3C10.7 19.52 10.06 19.68 9.4 19.79C9.38 19.79 9.36 19.79 9.34 19.79C9.15 19.79 8.99 19.62 8.99 19.41L8.99 19.07L8.47 19.07L8.47 19.57C8.47 19.77 8.33 19.93 8.14 19.95C7.82 20 7.53 20 7.23 20C7.03 20 6.87 19.82 6.87 19.61L6.87 19.07L6.35 19.07L6.35 19.55C6.35 19.66 6.31 19.76 6.24 19.83C6.16 19.91 6.07 19.94 5.97 19.93C5.66 19.91 5.36 19.87 5.05 19.81C4.87 19.78 4.75 19.62 4.75 19.43L4.75 19.05L4.23 19.05L4.23 19.13C4.23 19.17 4.22 19.21 4.21 19.25C4.16 19.46 3.96 19.57 3.78 19.52C2.86 19.24 1.98 18.83 1.17 18.3C1.06 18.23 1 18.11 1 17.98L1 15.25C1 15.23 1 15.22 1 15.2C0.99 14.12 1.42 11.98 4.74 10.79L4.92 10.73C5.88 10.41 6.82 10.04 7.73 9.6C8.25 9.35 8.73 9 9.15 8.57L9.15 8.54L9.18 8.52C9.46 8.2 9.7 7.84 9.87 7.44C9.87 7.42 9.87 7.4 9.87 7.38C9.88 7.37 9.89 7.36 9.89 7.35C10.35 6.25 10.5 4.69 10.38 2.4C10.38 2.39 10.38 2.38 10.38 2.38C10.38 2.17 10.54 1.99 10.74 2L19.46 2C19.85 2 20.17 2.34 20.17 2.76L20.17 5.94C20.17 6.25 19.99 6.53 19.72 6.65C19.87 6.96 20.04 7.4 20.22 7.94C20.25 7.99 20.27 8.05 20.28 8.12ZM19.44 2.77L12.28 2.77L12.28 5.93L19.44 5.93L19.44 2.77ZM7.82 10.41L7.82 10.39C7.04 10.77 6.24 11.1 5.43 11.39C5.95 12.17 6.75 13.95 6.08 16.83C9.72 17.09 14.04 16.12 16.91 15.3C15.93 14.52 15.35 13.28 15.34 11.96C15.32 9.64 17.06 7.74 19.22 7.72L19.36 7.72C19.19 7.27 19.03 6.91 18.94 6.71L12.29 6.71C11.9 6.71 11.58 6.37 11.58 5.95L11.58 2.78L11.11 2.78C11.19 4.79 11.02 6.26 10.64 7.37C11.21 7.69 11.77 8.04 12.31 8.43C12.41 8.38 12.51 8.35 12.62 8.35C13 8.36 13.3 8.69 13.3 9.1C13.3 9.51 12.99 9.83 12.61 9.83C12.23 9.83 11.93 9.49 11.93 9.09C11.42 8.71 10.89 8.36 10.34 8.05C10.21 8.31 10.06 8.55 9.89 8.77C10.26 9.14 10.59 9.54 10.91 9.96L10.99 9.96C11.07 9.96 11.15 9.97 11.22 10C11.57 10.13 11.76 10.55 11.64 10.93C11.51 11.31 11.13 11.51 10.77 11.38C10.42 11.25 10.23 10.83 10.36 10.45C10.06 10.05 9.74 9.68 9.4 9.33C9.12 9.59 8.82 9.82 8.51 10.01C8.79 10.28 9.04 10.59 9.27 10.92C9.62 10.95 9.89 11.27 9.89 11.65C9.88 12.05 9.58 12.38 9.2 12.37C8.83 12.37 8.53 12.04 8.53 11.64C8.53 11.5 8.56 11.37 8.63 11.26C8.38 10.95 8.12 10.67 7.82 10.41ZM12.62 4.34C12.62 3.73 13.08 3.23 13.65 3.23C14.22 3.23 14.68 3.73 14.68 4.34C14.68 4.96 14.22 5.45 13.65 5.45C13.08 5.45 12.62 4.96 12.62 4.34ZM13.33 4.34C13.33 4.53 13.47 4.69 13.65 4.69C13.83 4.69 13.97 4.53 13.97 4.34C13.97 4.15 13.83 3.99 13.65 3.99C13.47 3.99 13.33 4.15 13.33 4.34ZM17.87 15C18.9 14.71 19.64 14.43 19.94 14.33C20.63 12.43 20.16 10.12 19.64 8.5L19.63 8.49C19.5 8.47 19.36 8.46 19.22 8.47C18.01 8.49 16.91 9.24 16.39 10.41C15.62 12.12 16.28 14.18 17.87 15ZM5.37 16.73C6.1 13.73 5.1 12.09 4.72 11.61C1.95 12.67 1.67 14.44 1.7 15.25L1.7 15.28C1.7 15.37 1.71 15.45 1.72 15.54C2.84 16.21 4.09 16.62 5.37 16.73ZM20.12 17.72L20.12 18.36L20.28 18.36L20.28 15C19.52 15.28 13.04 17.61 7.38 17.61C5.25 17.61 3.25 17.28 1.7 16.4L1.7 17.77C2.27 18.13 2.88 18.42 3.51 18.64C3.53 18.45 3.68 18.3 3.87 18.31L5.1 18.31C5.29 18.31 5.45 18.48 5.45 18.69L5.45 19.12L5.63 19.14L5.63 18.69C5.63 18.48 5.79 18.31 5.99 18.31L7.22 18.31C7.42 18.31 7.58 18.48 7.58 18.69L7.58 19.22L7.76 19.22L7.76 18.7C7.76 18.49 7.92 18.32 8.11 18.32L9.34 18.32C9.53 18.32 9.69 18.49 9.69 18.7L9.69 18.96C10.15 18.87 10.61 18.74 11.05 18.58C13.56 17.07 15.32 18.02 15.8 18.34L15.8 17.72C15.8 17.51 15.96 17.34 16.16 17.34L17.38 17.34C17.58 17.34 17.74 17.51 17.74 17.72L17.74 18.36L18.17 18.36L18.17 17.72C18.17 17.51 18.33 17.34 18.53 17.34L19.76 17.34C19.96 17.34 20.12 17.51 20.12 17.72Z" fill="#0266C1" fill-opacity="1.000000" fill-rule="evenodd"/>
	</g>
</svg>
