<svg width="22.000000" height="22.000000" viewBox="0 0 22 22" fill="none" xmlns="http://www.w3.org/2000/svg" xmlns:xlink="http://www.w3.org/1999/xlink">
<defs>
<clipPath id="clip131_2519">
<rect id="icon/path" width="22.000000" height="22.000000" fill="white" fill-opacity="0"/>
</clipPath>
</defs>
<g clip-path="url(#clip131_2519)">
<path id="icon/path" d="M18.14 8.76L12.78 8.76C11.1 8.76 9.75 10.13 9.75 11.82C9.75 13.51 11.1 14.88 12.78 14.88L15.1 14.88C16.78 14.88 18.14 16.25 18.14 17.94C18.14 19.63 16.78 21 15.1 21L3.85 21M3.85 13.05C2.27 13.05 1 14.34 1 15.93L1 16.03C1 16.66 1.19 17.28 1.56 17.79L3.85 20.95C3.85 20.96 3.86 20.96 3.86 20.95L6.14 17.79C6.51 17.28 6.71 16.66 6.71 16.03L6.71 15.93C6.71 14.34 5.43 13.05 3.85 13.05ZM4.42 14.75C4.77 14.91 5.02 15.23 5.11 15.6C5.19 15.98 5.1 16.39 4.86 16.69C4.62 16.99 4.25 17.16 3.87 17.16L3.84 17.16C3.45 17.16 3.09 16.99 2.85 16.69C2.6 16.39 2.51 15.98 2.6 15.6C2.68 15.23 2.94 14.91 3.28 14.75L3.3 14.74C3.65 14.57 4.05 14.57 4.4 14.74L4.42 14.75ZM18.14 1C16.56 1 15.28 2.3 15.28 3.89C15.28 4.52 15.48 5.13 15.85 5.63L18.13 8.72C18.13 8.73 18.14 8.73 18.14 8.72L20.42 5.63C20.79 5.13 21 4.52 21 3.89C21 2.3 19.72 1 18.14 1ZM18.72 2.66C19.06 2.82 19.3 3.13 19.39 3.49C19.48 3.86 19.39 4.26 19.14 4.55L19.13 4.56C18.89 4.85 18.54 5.02 18.17 5.02L18.1 5.02C17.73 5.02 17.38 4.85 17.14 4.56L17.13 4.55C16.89 4.26 16.8 3.86 16.88 3.49C16.97 3.13 17.22 2.82 17.55 2.66L17.59 2.65C17.94 2.49 18.34 2.49 18.68 2.65L18.72 2.66Z" stroke="#0266C1" stroke-opacity="1.000000" stroke-width="1.000000" stroke-linecap="round"/>
</g>
</svg>
