<svg width="22.000000" height="22.000000" viewBox="0 0 22 22" fill="none" xmlns="http://www.w3.org/2000/svg" xmlns:xlink="http://www.w3.org/1999/xlink">
<defs>
<clipPath id="clip131_2522">
<rect id="icon/level" width="22.000000" height="22.000000" fill="white" fill-opacity="0"/>
</clipPath>
</defs>
<g clip-path="url(#clip131_2522)">
<path id="icon/shield" d="M3.44 2.81C3.09 2.81 2.73 2.8 2.38 2.78C1.92 4.87 1.87 7.04 2.25 9.17C2.92 12.99 4.93 16.46 7.91 18.95C8.86 19.75 9.9 20.43 11 21C12.09 20.43 13.13 19.75 14.08 18.95C17.06 16.46 19.07 12.99 19.74 9.17C20.12 7.04 20.07 4.87 19.61 2.78C19.26 2.8 18.9 2.81 18.55 2.81C15.9 2.81 13.32 2.18 11 1C8.67 2.18 6.09 2.81 3.44 2.81ZM8.75 10.91L11 13.15L14.93 9.22" stroke="#0266C1" stroke-opacity="1.000000" stroke-width="1.000000"/>
</g>
</svg>
